<?xml version="1.0" encoding="UTF-8" standalone="no"?>
<!-- Created with Inkscape (http://www.inkscape.org/) -->

<svg
   xmlns="http://www.w3.org/2000/svg"
   viewBox="0 0 13 13">
  <g transform="translate(-189.5259,-183.78047)">
    <g>
      <path
         style="fill:#e9ab6a"
         d="m 194.67992,195.12857 c -0.25741,-0.0746 -0.7022,-0.59467 -0.9884,-1.15568 -0.28621,-0.56101 -0.63443,-1.0905 -0.77383,-1.17666 -0.13941,-0.0862 -0.56914,0.38202 -0.95497,1.04038 -0.4426,0.75524 -0.88752,1.19703 -1.20553,1.19703 -0.75007,0 -0.63972,-0.97841 0.30761,-2.72747 0.88432,-1.63272 0.84569,-2.26634 -0.10039,-1.64645 -0.91715,0.60094 -1.41533,0.14331 -0.98223,-0.90228 0.18844,-0.45493 0.62377,-1.04831 0.96739,-1.3186 0.49278,-0.38762 0.59186,-0.65609 0.46895,-1.27064 -0.19499,-0.97495 0.4197,-1.65956 1.49007,-1.65956 0.90867,0 1.41302,0.74844 1.21392,1.80146 -0.10877,0.57528 0.0428,0.85902 0.78893,1.47692 l 0.92357,0.76485 0.72929,-0.6987 c 0.9246,-0.88582 1.44493,-0.88271 2.03126,0.0121 l 0.46576,0.71083 0.58769,-0.73703 c 0.35487,-0.44505 0.78143,-0.69973 1.07672,-0.64286 0.51128,0.0985 1.69827,1.64872 1.69827,2.218 0,0.51556 -0.73741,0.66919 -1.16407,0.24252 -0.50571,-0.50571 -0.61441,-0.48838 -0.95748,0.15267 -0.23544,0.43991 -0.1359,0.80429 0.54459,1.99367 0.45798,0.80046 0.76576,1.62979 0.68396,1.84295 -0.27639,0.72026 -1.15173,0.42092 -1.75397,-0.5998 -0.58013,-0.98325 -0.58439,-0.98504 -1.01832,-0.42825 -0.23966,0.30753 -0.55846,0.76682 -0.70843,1.02065 -0.27838,0.47116 -2.38073,0.77676 -3.37036,0.48991 z m 2.855,-2.59435 c 0.57209,-0.97621 0.63798,-1.27274 0.38697,-1.74174 -0.27805,-0.51955 -0.33991,-0.53139 -0.7653,-0.14642 -0.61933,0.56049 -2.3054,0.55072 -2.6221,-0.0152 -0.2226,-0.39775 -0.84508,-0.30956 -0.83926,0.11891 0.001,0.10055 0.36096,0.8079 0.7991,1.57188 0.67654,1.17967 0.91379,1.38906 1.57387,1.38906 0.64004,0 0.89896,-0.20768 1.46672,-1.1765 z m -4.37134,-3.85058 c 0,-0.14552 -0.18562,-0.26458 -0.41249,-0.26458 -0.22687,0 -0.3389,0.11906 -0.24897,0.26458 0.0899,0.14552 0.27556,0.26458 0.41249,0.26458 0.13694,0 0.24897,-0.11906 0.24897,-0.26458 z m 5.35586,-0.5572 c -0.70186,-0.25963 -1.01037,-1.30944 -0.60655,-2.06399 0.45143,-0.84349 2.04114,-0.77343 2.44259,0.10765 0.58814,1.29084 -0.5002,2.4505 -1.83604,1.95634 z"/>
      <path
         style="fill:#fbdec0"
         d="m 193.93219,193.44614 c -0.4477,-0.7276 -0.97106,-1.32292 -1.16304,-1.32292 -0.19197,0 -0.66302,0.53578 -1.04679,1.19063 -0.38376,0.65484 -0.81179,1.19062 -0.95118,1.19062 -0.37176,0 -0.34145,-0.0862 0.68931,-1.96146 0.77796,-1.41533 0.89194,-1.81 0.65215,-2.25807 -0.36794,-0.68749 -0.74715,-0.68593 -1.48378,0.006 -0.85321,0.80154 -1.00483,0.20279 -0.19592,-0.77364 0.80618,-0.97312 1.14816,-1.02995 1.80832,-0.30049 l 0.4826,0.53327 0.56764,-0.53327 c 0.74528,-0.70014 1.09145,-0.67269 1.61621,0.12819 0.23837,0.3638 0.64414,0.66146 0.90171,0.66146 0.25757,0 0.66334,-0.29766 0.90171,-0.66146 0.23837,-0.3638 0.60651,-0.66146 0.81808,-0.66146 0.21157,0 0.57971,0.29766 0.81808,0.66146 0.23837,0.3638 0.58461,0.66146 0.76942,0.66146 0.18481,0 0.53105,-0.29766 0.76942,-0.66146 0.57269,-0.87405 0.99505,-0.83426 1.82893,0.1723 0.80891,0.97643 0.65729,1.57518 -0.19592,0.77364 -0.72818,-0.68409 -1.11566,-0.69394 -1.46708,-0.0373 -0.43043,0.80426 -0.31109,1.64997 0.39447,2.79552 0.70273,1.14094 0.7916,1.4552 0.41155,1.4552 -0.13365,0 -0.50055,-0.41672 -0.81533,-0.92604 -0.31478,-0.50932 -0.73971,-0.92604 -0.9443,-0.92604 -0.20459,0 -0.67262,0.47625 -1.04008,1.05833 -0.63403,1.00438 -0.73549,1.05834 -1.99013,1.05834 -1.30153,0 -1.33468,-0.0205 -2.13605,-1.32292 z m 3.57054,-0.0741 c 1.01809,-1.33479 1.21294,-2.05839 0.78158,-2.90251 -0.41416,-0.81048 -0.92033,-0.92865 -1.41656,-0.33073 -0.43381,0.5227 -1.5576,0.50595 -2.15212,-0.0321 -1.00634,-0.91072 -1.72138,0.41538 -0.98968,1.83542 1.27225,2.46909 2.60056,2.972 3.77678,1.42991 z m -5.34456,-5.7997 c -0.80201,-0.80201 0.28908,-2.23888 1.15462,-1.52055 0.67062,0.55657 0.2899,1.83805 -0.54608,1.83805 -0.16007,0 -0.43392,-0.14288 -0.60854,-0.3175 z m 6.35,0 c -0.79887,-0.79886 0.0126,-2.06595 0.9885,-1.54363 0.84375,0.45156 0.55598,1.86113 -0.37996,1.86113 -0.16007,0 -0.43392,-0.14288 -0.60854,-0.3175 z"/>
    </g>
  </g>
</svg>
