<?xml version="1.0" encoding="UTF-8" standalone="no"?>
<svg
   xmlns="http://www.w3.org/2000/svg"
   viewBox="0 0 13 13">
  <g
     transform="translate(-189.5259,-183.78047)">
    <g
       transform="translate(-0.46772167,-16.771163)">
      <path
         style="fill:#e9ab6a"
         d="m 191.9727,213.22647 c -0.27158,-0.51645 -0.16489,-1.12349 -0.18758,-1.68688 1.2459,0 2.49179,0 3.73769,0 -0.0758,0.50328 -0.0306,1.04092 -0.23149,1.5124 -0.49593,0.37186 -1.19083,0.21826 -1.77741,0.29428 -0.51134,-0.005 -1.05418,0.0526 -1.54121,-0.1198 z m 5.82083,0 c -0.27158,-0.51645 -0.16489,-1.12349 -0.18758,-1.68688 1.2459,0 2.4918,0 3.7377,0 -0.0758,0.50328 -0.0306,1.04092 -0.23154,1.5124 -0.49591,0.37186 -1.1908,0.21826 -1.77737,0.29428 -0.51134,-0.005 -1.05418,0.0526 -1.54121,-0.1198 z m -6.33914,-3.38603 c -0.41892,-0.47391 -0.83785,-0.94783 -1.25677,-1.42174 0.0175,-1.35638 -0.0459,-2.7165 0.0576,-4.0696 0.0816,-0.88359 1.14805,-0.35007 1.32688,0.20781 0.43019,0.69427 0.47224,1.52289 0.49475,2.31462 -0.0732,0.57634 0.49248,0.67122 0.61737,0.10477 0.24608,-0.69902 1.20313,-0.93519 1.48678,-0.12764 0.63649,1.09387 0.82866,2.39814 0.68854,3.64503 -0.0139,0.21634 -0.0278,0.43268 -0.0417,0.64902 -0.63737,0.009 -1.28659,0.14946 -1.91423,-0.001 -0.61694,-0.2511 -1.0142,-0.83368 -1.45917,-1.30115 z m 6.85712,1.25817 c -0.31025,-0.5939 -0.15668,-1.3111 -0.10535,-1.95324 0.15383,-0.97286 0.35473,-2.05891 1.12599,-2.74002 0.69884,-0.42462 0.99177,0.54455 1.32889,0.9487 0.55884,0.0367 0.30365,-0.98688 0.40175,-1.37075 0.1023,-0.76472 0.3606,-1.64666 1.06761,-2.06062 0.89329,-0.32035 0.73518,0.94134 0.75701,1.47034 0.002,1.03462 -0.007,2.06924 -0.01,3.10386 -0.79215,0.81542 -1.50927,1.71204 -2.39351,2.43114 -0.59902,0.46272 -1.43176,0.40214 -2.11865,0.20602 l -0.0538,-0.0354 z m -3.88325,-5.71059 c -0.68986,-0.5078 -1.37036,-1.0997 -1.76002,-1.87565 -0.009,-0.64262 0.60404,-1.13758 0.99559,-1.59402 1.29955,-1.1697 3.3212,-1.3042 4.87674,-0.60128 0.83981,0.40444 1.51266,1.13953 1.89694,1.97947 -0.08,0.69935 -0.74461,1.2113 -1.21449,1.69105 -1.29192,1.1235 -3.34715,1.36245 -4.79476,0.40043 z m 2.90285,-1.50218 c 0.42337,-0.56474 0.018,-1.41507 -0.71517,-1.3404 -0.67993,-0.14294 -1.26929,0.55709 -0.9914,1.19951 0.22181,0.67937 1.27431,0.88692 1.65245,0.23183 z"/>
      <path
         style="fill:#fbdec0"
         d="m 191.78512,212.46563 c -0.11513,-0.832 0.94791,-0.62187 1.46157,-0.66083 0.68799,0.0312 1.40661,-0.0862 2.07041,0.12494 0.44835,0.47464 0.0968,1.37405 -0.63148,1.18436 -0.84855,0.003 -1.70528,0.0594 -2.54889,-0.0485 -0.31375,-0.0266 -0.37542,-0.34046 -0.35161,-0.59996 z m 5.82083,0 c -0.11513,-0.83201 0.94791,-0.62187 1.46157,-0.66083 0.68799,0.0312 1.40661,-0.0862 2.07041,0.12494 0.44835,0.47464 0.0968,1.37404 -0.63147,1.18436 -0.84856,0.003 -1.70528,0.0594 -2.5489,-0.0485 -0.31375,-0.0266 -0.37542,-0.34046 -0.35161,-0.59996 z m -6.28385,-2.8074 c -0.51625,-0.58833 -1.10265,-1.22953 -1.09824,-2.06489 -0.0257,-1.15385 -0.10487,-2.33714 0.1736,-3.46685 0.48464,-0.60197 1.04062,0.4118 1.17091,0.85505 0.38682,0.91148 0.3164,2.03016 0.98851,2.80747 0.56963,-0.0648 0.022,-1.31542 0.81021,-1.39843 0.69225,0.0258 0.88233,0.89525 1.14035,1.40839 0.37205,0.91494 0.49075,1.90304 0.45268,2.88339 0.0596,0.27543 -0.0342,0.395 -0.31658,0.32315 -0.72663,-0.0474 -1.49976,0.0935 -2.17701,-0.22922 -0.46267,-0.27719 -0.78943,-0.72305 -1.14443,-1.11806 z m 6.81883,0.22771 c 0.0388,-1.11335 0.34836,-2.28084 1.0944,-3.13204 0.54966,-0.62517 1.23205,0.0754 1.03244,0.73852 0.18387,0.82423 0.72692,-0.34926 0.76898,-0.68063 0.28165,-0.94674 0.33374,-2.06349 1.08477,-2.7851 0.73142,-0.41099 0.69489,0.72141 0.74322,1.1763 0.0317,0.95685 0.0915,1.92843 -0.0636,2.87696 -0.24103,0.87286 -0.98699,1.47213 -1.53631,2.15375 -0.38136,0.47276 -0.9538,0.77716 -1.56886,0.74932 -0.52018,0.0144 -1.04061,0.018 -1.5609,0.0274 0.002,-0.37483 0.004,-0.74967 0.006,-1.1245 z m -3.84227,-4.65418 c -0.63708,-0.43508 -1.26473,-1.04556 -1.40696,-1.83324 0.10533,-0.63655 0.6402,-1.12281 1.11556,-1.51906 1.09085,-0.83501 2.60932,-1.21242 3.90847,-0.64757 0.95445,0.37423 1.87658,1.04539 2.27222,2.01886 0.0455,0.63746 -0.46098,1.16949 -0.88353,1.58863 -0.91334,0.87602 -2.28003,0.94399 -3.47314,0.84304 -0.52981,-0.0623 -1.06862,-0.17636 -1.53262,-0.45066 z m 3.175,-1.73313 c 0.0718,-0.7104 -0.67393,-1.43334 -1.37421,-1.11132 -0.57825,0.28332 -0.74935,1.11006 -0.49,1.65973 0.42342,0.46239 1.36315,0.41537 1.79055,-0.005 0.0767,-0.16945 0.0697,-0.36184 0.0737,-0.54353 z"/>
    </g>
  </g>
</svg>
