<?xml version="1.0" encoding="UTF-8" standalone="no"?>
<svg
   xmlns="http://www.w3.org/2000/svg"
   viewBox="0 0 13 13">
  <g
     transform="translate(-189.5259,-183.78047)">
    <g>
      <path
         style="fill:#e9ab6a"
         d="m 189.6906,194.95008 c 0.0173,-0.70647 -0.13984,-1.65276 0.63301,-2.03238 1.40121,-0.92944 3.28001,-1.02597 4.7938,-0.31282 0.75714,0.32759 1.61696,0.21904 2.38275,0.47386 0.48315,0.37359 1.07012,0.73709 1.68069,0.40906 0.73078,-0.2181 1.60078,-0.51886 2.30094,-0.0579 0.55246,0.77719 -0.66456,1.29916 -1.22664,1.58471 -1.16207,0.59795 -2.34892,1.23136 -3.64942,1.4538 -1.57282,0.1541 -3.0591,-0.5118 -4.56487,-0.85102 -0.48624,-0.13445 -0.90661,0.35636 -1.36298,0.50543 -0.29072,0.0574 -0.90845,0.64865 -0.98728,0.36005 v -1.53278 z m 6.48388,-2.73614 c -0.56425,-0.71517 -0.28886,-1.68647 -0.31435,-2.52202 0.0853,-1.42565 0.10395,-2.85852 0.22399,-4.27999 0.19085,-0.81771 1.03462,-1.7074 1.93507,-1.39781 0.61935,0.30854 1.35597,0.56487 1.96718,0.1061 0.86347,-0.37387 2.08788,0.0529 2.26525,1.04514 0.0758,0.72316 -0.43574,1.31265 0.0148,1.99403 0.18,0.82828 0.092,1.68784 0.12474,2.53019 -0.007,0.80897 -0.0593,1.62068 -0.21673,2.4155 -0.48349,0.70877 -1.48087,0.39948 -2.2077,0.52624 -1.15074,0.005 -2.33442,0.10077 -3.45611,-0.20248 -0.12408,-0.0496 -0.24212,-0.11903 -0.33618,-0.2149 z m 3.82222,-2.59617 c 0.69207,-0.39089 0.26306,-1.79178 -0.84253,-1.00357 -0.27789,-0.66884 -1.48385,-0.44791 -1.11032,0.47219 0.33369,0.40511 1.17175,1.70855 1.17175,1.70855 0,0 0.59077,-1.01924 0.7811,-1.17717 z"/>
      <path
         style="fill:#fbdec0"
         d="m 189.74354,194.89294 c 0.0969,-0.5766 -0.0867,-1.53674 0.71948,-1.59001 0.70422,-0.36391 1.46149,-0.65413 2.26832,-0.63776 0.93918,-0.0533 1.83883,0.24078 2.7035,0.56786 0.60677,0.28203 1.35888,0.0577 1.91314,0.41953 -0.26664,0.48334 -1.09011,0.22715 -1.58526,0.36018 -0.54064,-0.0471 -1.08438,0.61749 -0.35041,0.8491 1.05177,0.39094 2.21293,-0.0192 3.16724,-0.49467 0.70327,-0.34285 1.46846,-0.70906 2.27016,-0.64899 0.57762,0.32985 -0.55779,0.68352 -0.833,0.90176 -0.87376,0.47984 -1.82442,0.84 -2.61539,1.45697 -0.49591,0.44421 -1.33307,0.21851 -1.96543,0.24111 -0.69974,0.0535 -1.14265,-0.53261 -1.78027,-0.70268 -0.6358,-0.19688 -1.27821,-0.54977 -1.96123,-0.46764 -0.54663,0.20771 -1.13624,0.50882 -1.47462,0.99628 -0.56676,0.60851 -0.51425,-0.78158 -0.48042,-1.16801 l 0.004,-0.0827 z m 6.6501,-3.19078 c -0.14153,-1.19076 -0.0215,-2.39924 0.0165,-3.59541 0.0746,-1.11211 0.10485,-2.23503 0.31958,-3.33108 0.24922,-0.72441 1.55448,-0.88198 1.83486,-0.1009 0.46645,0.62128 1.30419,0.0947 1.66986,-0.38022 0.62267,-0.54079 1.57085,-0.003 1.7483,0.71451 0.22981,0.63794 -0.22651,1.35317 0.15302,1.96113 0.27443,0.76874 0.18993,1.61729 0.20625,2.42263 -0.0253,0.86432 -0.0561,1.72849 -0.0837,2.59274 -1.68085,0.028 -3.36226,0.13247 -5.04303,0.0761 -0.29149,-0.0349 -0.69675,-0.033 -0.82167,-0.35949 z m 3.98907,-1.72127 c 0.38948,-0.45546 0.94894,-1.15215 0.45674,-1.73349 -0.63948,-0.84828 -1.91881,-0.75546 -2.78161,-0.33548 -0.6882,0.24189 -0.90193,1.09959 -0.37153,1.60966 0.40905,0.51176 0.86542,1.10865 1.52929,1.27336 0.4775,-0.0844 0.85253,-0.47107 1.16711,-0.81405 z m -2.01064,-4.40844 c -0.063,-0.87532 -1.42076,-0.56815 -0.93482,0.25137 0.20674,0.33961 1.10574,0.29769 0.93482,-0.25137 z m 2.69561,-0.0886 c -0.0122,-0.88933 -1.3098,-0.30641 -0.98971,0.37367 0.28728,0.35935 1.08563,0.17625 0.98971,-0.37367 z"/>
    </g>
  </g>
</svg>
