<?xml version="1.0" encoding="UTF-8" standalone="no"?>
<svg xmlns="http://www.w3.org/2000/svg"
   viewBox="0 0 13 13">
  <g
     transform="translate(-189.5259,-183.78047)">
    <g>
      <path
         style="fill:#e9ab6a"
         d="m 191.64914,196.13618 c -0.24083,-0.26612 -0.43788,-0.59508 -0.43788,-0.73101 0,-0.13594 -0.25815,-0.36469 -0.57367,-0.50834 -0.92332,-0.42036 -1.17788,-1.04776 -0.74973,-1.84778 0.29483,-0.55089 0.30601,-0.80061 0.0539,-1.20426 -0.50463,-0.80804 -0.37657,-1.30119 0.46302,-1.78305 0.42958,-0.24655 0.84771,-0.71382 0.92917,-1.03839 0.2297,-0.9152 1.09848,-1.26208 1.8794,-0.7504 0.58908,0.38598 0.69834,0.38598 1.28743,0 0.79217,-0.51905 1.59833,-0.18106 1.83709,0.77022 0.0972,0.38732 0.41894,0.70406 0.81654,0.80385 0.97499,0.2447 1.34116,1.09508 0.8164,1.89596 -0.38598,0.58909 -0.38598,0.69835 0,1.28743 0.51315,0.78317 0.16411,1.64987 -0.7576,1.88121 -0.32853,0.0824 -0.71204,0.40154 -0.85226,0.70908 -0.41461,0.90941 -1.04546,1.16127 -1.84153,0.73523 -0.55089,-0.29483 -0.80061,-0.30601 -1.20426,-0.0539 -0.70845,0.44243 -1.15588,0.3979 -1.66605,-0.16582 z m 3.4106,-2.54683 c 0.82408,-0.82408 0.82408,-1.58123 0,-2.4053 -0.82407,-0.82408 -1.58122,-0.82408 -2.4053,0 -0.35719,0.35718 -0.64943,0.89838 -0.64943,1.20265 0,0.71384 1.13824,1.85208 1.85208,1.85208 0.30427,0 0.84547,-0.29224 1.20265,-0.64943 z m 3.89534,-4.11307 c -0.2492,-0.29104 -0.65017,-0.52917 -0.89106,-0.52917 -0.71261,0 -0.97684,-0.57255 -0.97684,-2.11666 0,-1.56002 0.26384,-2.11667 1.00325,-2.11667 0.2554,0 0.61259,-0.17859 0.79375,-0.39688 0.4171,-0.50257 1.16414,-0.51011 1.57431,-0.0159 0.17391,0.20955 0.56328,0.41791 0.86528,0.46302 0.81252,0.12139 1.20671,0.88088 0.79738,1.53633 -0.265,0.42433 -0.265,0.63583 0,1.06016 0.39729,0.63615 0.0256,1.40199 -0.75179,1.54899 -0.27544,0.0521 -0.71381,0.31997 -0.97414,0.59531 -0.60065,0.63528 -0.87644,0.62981 -1.44014,-0.0285 z m 1.42879,-2.26947 c 0.0881,-0.22957 -0.0347,-0.61227 -0.27289,-0.85045 -0.40102,-0.40102 -0.46563,-0.40048 -0.87335,0.007 -0.36371,0.36371 -0.38108,0.51162 -0.0999,0.85044 0.43876,0.52867 1.04183,0.52517 1.24613,-0.007 z"/>
      <path
         style="fill:#fbdec0"
         d="m 192.1373,196.41754 c -0.14552,-0.10691 -0.30464,-0.49204 -0.3536,-0.85584 -0.11138,-0.82758 -0.27403,-0.99023 -1.10161,-1.10161 -1.15603,-0.15558 -1.33701,-0.73482 -0.47927,-1.53392 l 0.57905,-0.53947 -0.59326,-0.55271 c -0.75705,-0.7053 -0.62155,-1.09192 0.51336,-1.46484 0.583,-0.19157 0.93542,-0.49138 0.98819,-0.84068 0.14197,-0.93963 0.74537,-1.23602 1.50415,-0.73885 0.61451,0.40264 0.71106,0.40264 1.32557,0 0.76861,-0.50361 1.36618,-0.19691 1.50414,0.77202 0.0508,0.35678 0.30135,0.60733 0.65813,0.65813 0.90653,0.12908 1.21359,0.66571 0.84446,1.47586 -0.24344,0.53429 -0.24344,0.84784 0,1.38214 0.36824,0.80819 0.0219,1.42559 -0.7998,1.42559 -0.50998,0 -0.66314,0.22608 -0.80663,1.19063 -0.15287,1.02766 -0.76053,1.16605 -1.52361,0.34698 l -0.53948,-0.57905 -0.53947,0.57905 c -0.57854,0.621 -0.76615,0.68085 -1.18032,0.37657 z m 2.754,-2.03399 c 0.40884,-0.21142 0.89716,-0.75574 1.08515,-1.2096 0.7336,-1.77105 -1.15543,-3.63197 -2.93752,-2.89381 -1.16265,0.48159 -1.75518,1.79779 -1.30193,2.89202 0.3262,0.78752 1.33704,1.5627 2.06709,1.58519 0.18912,0.006 0.67837,-0.16238 1.08721,-0.3738 z m 4.25746,-5.43644 c -0.16149,-0.30175 -0.55399,-0.52916 -0.9133,-0.52916 -0.74009,0 -0.95803,-0.43934 -0.60685,-1.22331 0.16496,-0.36826 0.15434,-0.74371 -0.0308,-1.08969 -0.33897,-0.63337 -0.15979,-0.862 0.67557,-0.862 0.42206,0 0.70528,-0.21401 0.8754,-0.66146 0.13832,-0.3638 0.37605,-0.66146 0.52829,-0.66146 0.15224,0 0.41243,0.29766 0.57819,0.66146 0.21628,0.4747 0.50909,0.66146 1.03704,0.66146 0.95386,0 1.20228,0.43106 0.61952,1.075 -0.44202,0.48842 -0.44202,0.53657 0,1.02499 0.57846,0.63919 0.33589,1.07501 -0.59834,1.07501 -0.42795,0 -0.84703,0.21222 -1.04496,0.52916 -0.18176,0.29104 -0.44434,0.52917 -0.58351,0.52917 -0.13916,0 -0.38047,-0.23813 -0.53623,-0.52917 z m 1.26405,-1.20562 c 0.32342,-0.22654 0.58803,-0.58372 0.58803,-0.79375 0,-0.43458 -0.92373,-1.44021 -1.32291,-1.44021 -0.34315,0 -1.32292,0.97977 -1.32292,1.32292 0,0.3117 0.96621,1.32291 1.26405,1.32291 0.11314,0 0.47032,-0.18534 0.79375,-0.41187 z"/>
    </g>
  </g>
</svg>
